<svg xmlns="http://www.w3.org/2000/svg" viewBox="0 0 640 160" width="640" height="160">
  <rect width="640" height="160" fill="#0d1117" rx="10" stroke="#58a6ff" stroke-width="1.5" stroke-opacity="0.4"/>
  <rect x="1" y="1" width="638" height="28" rx="10" fill="#161b22"/>
  <rect x="1" y="20" width="638" height="9" fill="#161b22"/>
  <circle cx="18" cy="14" r="5" fill="#f85149" opacity="0.8"/>
  <circle cx="34" cy="14" r="5" fill="#f0883e" opacity="0.8"/>
  <circle cx="50" cy="14" r="5" fill="#3fb950" opacity="0.8"/>
  <text x="320" y="18" text-anchor="middle" font-family="monospace" font-size="11" fill="#8b949e">Kubernetes Architecture</text>

  <!-- Control Plane box -->
  <rect x="20" y="40" width="240" height="50" fill="#161b22" stroke="#58a6ff" stroke-width="1.5" rx="4"/>
  <text x="25" y="55" font-family="monospace" font-size="9" fill="#58a6ff">Control Plane:</text>
  <text x="25" y="70" font-family="monospace" font-size="8" fill="#8b949e">API Server  |  etcd  |  Scheduler  |  Controller Mgr</text>
  <text x="25" y="82" font-family="monospace" font-size="8" fill="#58a6ff">→ makes all decisions</text>

  <!-- Arrow down -->
  <line x1="140" y1="90" x2="140" y2="108" stroke="#30363d" stroke-width="1.5"/>
  <polygon points="135,104 140,112 145,104" fill="#30363d"/>

  <!-- Worker Nodes row -->
  <rect x="20" y="110" width="70" height="36" fill="#161b22" stroke="#3fb950" stroke-width="1" rx="3"/>
  <text x="55" y="124" text-anchor="middle" font-family="monospace" font-size="8" fill="#3fb950">Node 1</text>
  <text x="55" y="138" text-anchor="middle" font-family="monospace" font-size="7" fill="#8b949e">kubelet</text>

  <rect x="100" y="110" width="70" height="36" fill="#161b22" stroke="#3fb950" stroke-width="1" rx="3"/>
  <text x="135" y="124" text-anchor="middle" font-family="monospace" font-size="8" fill="#3fb950">Node 2</text>
  <text x="135" y="138" text-anchor="middle" font-family="monospace" font-size="7" fill="#8b949e">kubelet</text>

  <rect x="180" y="110" width="70" height="36" fill="#161b22" stroke="#3fb950" stroke-width="1" rx="3"/>
  <text x="215" y="124" text-anchor="middle" font-family="monospace" font-size="8" fill="#3fb950">Node 3</text>
  <text x="215" y="138" text-anchor="middle" font-family="monospace" font-size="7" fill="#8b949e">kubelet</text>

  <!-- Command section -->
  <text x="290" y="52" font-family="monospace" font-size="12" fill="#3fb950">$ kubectl get pods -n kube-system</text>
  <text x="290" y="70" font-family="monospace" font-size="10" fill="#8b949e">NAME                        STATUS</text>
  <text x="290" y="86" font-family="monospace" font-size="10" fill="#58a6ff">kube-apiserver-node1        Running</text>
  <text x="290" y="100" font-family="monospace" font-size="10" fill="#58a6ff">etcd-node1                  Running</text>
  <text x="290" y="114" font-family="monospace" font-size="10" fill="#58a6ff">kube-scheduler-node1        Running</text>
  <text x="290" y="128" font-family="monospace" font-size="10" fill="#58a6ff">kube-controller-manager     Running</text>
  <text x="290" y="148" font-family="monospace" font-size="9" fill="#8b949e" opacity="0.6">← all control plane pods</text>
</svg>
