<svg xmlns="http://www.w3.org/2000/svg" viewBox="0 0 640 160" width="640" height="160">
  <rect width="640" height="160" fill="#0d1117" rx="10" stroke="#58a6ff" stroke-width="1.5" stroke-opacity="0.4"/>
  <rect x="1" y="1" width="638" height="28" rx="10" fill="#161b22"/>
  <rect x="1" y="20" width="638" height="9" fill="#161b22"/>
  <circle cx="18" cy="14" r="5" fill="#f85149" opacity="0.8"/>
  <circle cx="34" cy="14" r="5" fill="#f0883e" opacity="0.8"/>
  <circle cx="50" cy="14" r="5" fill="#3fb950" opacity="0.8"/>
  <text x="320" y="18" text-anchor="middle" font-family="monospace" font-size="11" fill="#8b949e">KSM Services — Knowledge Check</text>
  <!-- KSM flow: ServiceTemplate → ClusterDeployment → Child Cluster -->
  <rect x="30" y="50" width="120" height="35" fill="#161b22" stroke="#3fb950" stroke-width="1" rx="3"/>
  <text x="90" y="65" text-anchor="middle" font-family="monospace" font-size="9" fill="#3fb950">ServiceTemplate</text>
  <text x="90" y="79" text-anchor="middle" font-family="monospace" font-size="8" fill="#8b949e">nginx-ingress-4.11.3</text>
  <line x1="150" y1="67" x2="188" y2="67" stroke="#58a6ff" stroke-width="1.5"/>
  <rect x="188" y="50" width="140" height="35" fill="#161b22" stroke="#58a6ff" stroke-width="1" rx="3"/>
  <text x="258" y="65" text-anchor="middle" font-family="monospace" font-size="9" fill="#58a6ff">ClusterDeployment</text>
  <text x="258" y="79" text-anchor="middle" font-family="monospace" font-size="8" fill="#8b949e">serviceSpec: [nginx-ingress]</text>
  <line x1="328" y1="67" x2="366" y2="67" stroke="#58a6ff" stroke-width="1.5"/>
  <rect x="366" y="50" width="120" height="35" fill="#161b22" stroke="#f0883e" stroke-width="1" rx="3"/>
  <text x="426" y="65" text-anchor="middle" font-family="monospace" font-size="9" fill="#f0883e">Child Cluster</text>
  <text x="426" y="79" text-anchor="middle" font-family="monospace" font-size="8" fill="#8b949e">nginx deployed ✓</text>
  <!-- KSM label -->
  <rect x="510" y="50" width="110" height="35" fill="#161b22" stroke="#58a6ff" stroke-width="1" rx="3"/>
  <text x="565" y="65" text-anchor="middle" font-family="monospace" font-size="9" fill="#58a6ff">KSM manages</text>
  <text x="565" y="79" text-anchor="middle" font-family="monospace" font-size="8" fill="#8b949e">via ProjectSveltos</text>
  <text x="320" y="125" text-anchor="middle" font-family="monospace" font-size="10" fill="#3fb950">Beach-head: ingress · CNI · CSI · cert-manager · monitoring</text>
  <text x="320" y="148" text-anchor="middle" font-family="monospace" font-size="9" fill="#58a6ff" opacity="0.5">$ kubectl get servicetemplate -A → VALID: true</text>
</svg>
