<svg xmlns="http://www.w3.org/2000/svg" viewBox="0 0 640 160" width="640" height="160">
  <rect width="640" height="160" fill="#0d1117" rx="10" stroke="#58a6ff" stroke-width="1.5" stroke-opacity="0.4"/>
  <rect x="1" y="1" width="638" height="28" rx="10" fill="#161b22"/>
  <rect x="1" y="20" width="638" height="9" fill="#161b22"/>
  <circle cx="18" cy="14" r="5" fill="#f85149" opacity="0.8"/>
  <circle cx="34" cy="14" r="5" fill="#f0883e" opacity="0.8"/>
  <circle cx="50" cy="14" r="5" fill="#3fb950" opacity="0.8"/>
  <text x="320" y="18" text-anchor="middle" font-family="monospace" font-size="11" fill="#8b949e">Backup &amp; Observability — Final Knowledge Check</text>
  <!-- Backup cycle -->
  <rect x="30" y="50" width="130" height="30" fill="#161b22" stroke="#58a6ff" stroke-width="1" rx="3"/>
  <text x="95" y="70" text-anchor="middle" font-family="monospace" font-size="9" fill="#58a6ff">ManagementBackup</text>
  <line x1="160" y1="65" x2="195" y2="65" stroke="#3fb950" stroke-width="1.5"/>
  <rect x="195" y="50" width="90" height="30" fill="#161b22" stroke="#3fb950" stroke-width="1" rx="3"/>
  <text x="240" y="65" text-anchor="middle" font-family="monospace" font-size="9" fill="#3fb950">Velero</text>
  <text x="240" y="76" text-anchor="middle" font-family="monospace" font-size="8" fill="#8b949e">executes</text>
  <line x1="285" y1="65" x2="320" y2="65" stroke="#3fb950" stroke-width="1.5"/>
  <rect x="320" y="50" width="90" height="30" fill="#161b22" stroke="#3fb950" stroke-width="1" rx="3"/>
  <text x="365" y="65" text-anchor="middle" font-family="monospace" font-size="9" fill="#3fb950">S3 Storage</text>
  <text x="365" y="76" text-anchor="middle" font-family="monospace" font-size="8" fill="#8b949e">backup stored</text>
  <!-- KOF observability -->
  <rect x="450" y="50" width="160" height="30" fill="#161b22" stroke="#f0883e" stroke-width="1" rx="3"/>
  <text x="530" y="65" text-anchor="middle" font-family="monospace" font-size="9" fill="#f0883e">KOF Observability</text>
  <text x="530" y="76" text-anchor="middle" font-family="monospace" font-size="8" fill="#8b949e">OpenTelemetry + Grafana</text>
  <!-- Workshop complete badge -->
  <rect x="150" y="100" width="340" height="28" fill="#1f2937" stroke="#3fb950" stroke-width="1.5" rx="4"/>
  <text x="320" y="119" text-anchor="middle" font-family="monospace" font-size="11" fill="#3fb950">🎉 Workshop Complete — 12 Lessons Done!</text>
  <text x="320" y="148" text-anchor="middle" font-family="monospace" font-size="9" fill="#58a6ff" opacity="0.5">$ velero backup get → $ velero restore create --from-backup &lt;name&gt;</text>
</svg>
