<svg xmlns="http://www.w3.org/2000/svg" viewBox="0 0 640 160" width="640" height="160">
  <rect width="640" height="160" fill="#0d1117" rx="10" stroke="#58a6ff" stroke-width="1.5" stroke-opacity="0.4"/>
  <rect x="1" y="1" width="638" height="28" rx="10" fill="#161b22"/>
  <rect x="1" y="20" width="638" height="9" fill="#161b22"/>
  <circle cx="18" cy="14" r="5" fill="#f85149" opacity="0.8"/>
  <circle cx="34" cy="14" r="5" fill="#f0883e" opacity="0.8"/>
  <circle cx="50" cy="14" r="5" fill="#3fb950" opacity="0.8"/>
  <text x="320" y="18" text-anchor="middle" font-family="monospace" font-size="11" fill="#8b949e">Kubernetes-Architektur</text>

  <!-- Control Plane -->
  <rect x="20" y="38" width="280" height="58" fill="#1f6feb" fill-opacity="0.1" stroke="#58a6ff" stroke-width="1" rx="4"/>
  <text x="160" y="53" text-anchor="middle" font-family="monospace" font-size="9" fill="#58a6ff">Control Plane (Gehirn)</text>
  <text x="160" y="68" text-anchor="middle" font-family="monospace" font-size="8" fill="#8b949e">API Server  etcd  Scheduler</text>
  <text x="160" y="83" text-anchor="middle" font-family="monospace" font-size="8" fill="#8b949e">Controller Manager</text>

  <!-- Arrow down -->
  <line x1="160" y1="96" x2="160" y2="108" stroke="#30363d" stroke-width="1.5"/>
  <polygon points="155,108 165,108 160,115" fill="#30363d"/>

  <!-- Worker Nodes -->
  <rect x="20" y="116" width="80" height="34" fill="#161b22" stroke="#3fb950" stroke-width="1" rx="3"/>
  <text x="60" y="130" text-anchor="middle" font-family="monospace" font-size="8" fill="#3fb950">Node 1</text>
  <text x="60" y="143" text-anchor="middle" font-family="monospace" font-size="7" fill="#8b949e">kubelet</text>

  <rect x="110" y="116" width="80" height="34" fill="#161b22" stroke="#3fb950" stroke-width="1" rx="3"/>
  <text x="150" y="130" text-anchor="middle" font-family="monospace" font-size="8" fill="#3fb950">Node 2</text>
  <text x="150" y="143" text-anchor="middle" font-family="monospace" font-size="7" fill="#8b949e">kubelet</text>

  <rect x="200" y="116" width="80" height="34" fill="#161b22" stroke="#3fb950" stroke-width="1" rx="3"/>
  <text x="240" y="130" text-anchor="middle" font-family="monospace" font-size="8" fill="#3fb950">Node 3</text>
  <text x="240" y="143" text-anchor="middle" font-family="monospace" font-size="7" fill="#8b949e">kubelet</text>

  <!-- k0rdent layer -->
  <rect x="340" y="38" width="280" height="110" fill="#238636" fill-opacity="0.08" stroke="#3fb950" stroke-width="1" rx="4"/>
  <text x="480" y="55" text-anchor="middle" font-family="monospace" font-size="9" fill="#3fb950">k0rdent Management-Cluster</text>
  <text x="480" y="72" text-anchor="middle" font-family="monospace" font-size="8" fill="#8b949e">steuert Child-Cluster →</text>
  <rect x="360" y="82" width="70" height="24" fill="#161b22" stroke="#58a6ff" stroke-width="1" rx="2"/>
  <text x="395" y="97" text-anchor="middle" font-family="monospace" font-size="7" fill="#58a6ff">Cluster A</text>
  <rect x="445" y="82" width="70" height="24" fill="#161b22" stroke="#58a6ff" stroke-width="1" rx="2"/>
  <text x="480" y="97" text-anchor="middle" font-family="monospace" font-size="7" fill="#58a6ff">Cluster B</text>
  <rect x="530" y="82" width="70" height="24" fill="#161b22" stroke="#58a6ff" stroke-width="1" rx="2"/>
  <text x="565" y="97" text-anchor="middle" font-family="monospace" font-size="7" fill="#58a6ff">Cluster C</text>
  <text x="480" y="130" text-anchor="middle" font-family="monospace" font-size="8" fill="#3fb950">Super-Control-Plane</text>
</svg>
