<svg xmlns="http://www.w3.org/2000/svg" viewBox="0 0 640 160" width="640" height="160">
  <rect width="640" height="160" fill="#0d1117" rx="10" stroke="#58a6ff" stroke-width="1.5" stroke-opacity="0.4"/>
  <rect x="1" y="1" width="638" height="28" rx="10" fill="#161b22"/>
  <rect x="1" y="20" width="638" height="9" fill="#161b22"/>
  <circle cx="18" cy="14" r="5" fill="#f85149" opacity="0.8"/>
  <circle cx="34" cy="14" r="5" fill="#f0883e" opacity="0.8"/>
  <circle cx="50" cy="14" r="5" fill="#3fb950" opacity="0.8"/>
  <text x="320" y="18" text-anchor="middle" font-family="monospace" font-size="11" fill="#8b949e">Warum k0rdent über Kubernetes?</text>

  <!-- Center: k0rdent management -->
  <circle cx="320" cy="92" r="32" fill="#1f6feb" fill-opacity="0.15" stroke="#58a6ff" stroke-width="2"/>
  <text x="320" y="88" text-anchor="middle" font-family="monospace" font-size="9" fill="#58a6ff" font-weight="bold">k0rdent</text>
  <text x="320" y="101" text-anchor="middle" font-family="monospace" font-size="7" fill="#8b949e">Management</text>

  <!-- Child clusters -->
  <circle cx="160" cy="60" r="20" fill="#161b22" stroke="#3fb950" stroke-width="1"/>
  <text x="160" y="64" text-anchor="middle" font-family="monospace" font-size="7" fill="#3fb950">dev</text>
  <line x1="180" y1="68" x2="290" y2="82" stroke="#3fb950" stroke-width="1" stroke-dasharray="4,2"/>

  <circle cx="480" cy="60" r="20" fill="#161b22" stroke="#3fb950" stroke-width="1"/>
  <text x="480" y="64" text-anchor="middle" font-family="monospace" font-size="7" fill="#3fb950">prod</text>
  <line x1="460" y1="68" x2="350" y2="82" stroke="#3fb950" stroke-width="1" stroke-dasharray="4,2"/>

  <circle cx="120" cy="130" r="20" fill="#161b22" stroke="#f0883e" stroke-width="1"/>
  <text x="120" y="134" text-anchor="middle" font-family="monospace" font-size="7" fill="#f0883e">staging</text>
  <line x1="140" y1="122" x2="292" y2="104" stroke="#f0883e" stroke-width="1" stroke-dasharray="4,2"/>

  <circle cx="520" cy="130" r="20" fill="#161b22" stroke="#f0883e" stroke-width="1"/>
  <text x="520" y="134" text-anchor="middle" font-family="monospace" font-size="7" fill="#f0883e">edge</text>
  <line x1="500" y1="122" x2="348" y2="104" stroke="#f0883e" stroke-width="1" stroke-dasharray="4,2"/>

  <!-- Labels -->
  <text x="320" y="145" text-anchor="middle" font-family="monospace" font-size="8" fill="#8b949e">KCM · KSM · KOF</text>
</svg>
