<svg xmlns="http://www.w3.org/2000/svg" viewBox="0 0 640 160" width="640" height="160">
  <rect width="640" height="160" fill="#0d1117" rx="10" stroke="#58a6ff" stroke-width="1.5" stroke-opacity="0.4"/>
  <rect x="1" y="1" width="638" height="28" rx="10" fill="#161b22"/>
  <rect x="1" y="20" width="638" height="9" fill="#161b22"/>
  <circle cx="18" cy="14" r="5" fill="#f85149" opacity="0.8"/>
  <circle cx="34" cy="14" r="5" fill="#f0883e" opacity="0.8"/>
  <circle cx="50" cy="14" r="5" fill="#3fb950" opacity="0.8"/>
  <text x="320" y="18" text-anchor="middle" font-family="monospace" font-size="11" fill="#8b949e">Supported Providers</text>

  <!-- Provider pills -->
  <rect x="20" y="40" width="80" height="22" fill="#1f6feb" fill-opacity="0.3" stroke="#58a6ff" stroke-width="1" rx="11"/>
  <text x="60" y="55" text-anchor="middle" font-family="monospace" font-size="9" fill="#58a6ff">AWS (CAPA)</text>

  <rect x="110" y="40" width="86" height="22" fill="#1f6feb" fill-opacity="0.3" stroke="#58a6ff" stroke-width="1" rx="11"/>
  <text x="153" y="55" text-anchor="middle" font-family="monospace" font-size="9" fill="#58a6ff">Azure (CAPZ)</text>

  <rect x="206" y="40" width="80" height="22" fill="#1f6feb" fill-opacity="0.3" stroke="#58a6ff" stroke-width="1" rx="11"/>
  <text x="246" y="55" text-anchor="middle" font-family="monospace" font-size="9" fill="#58a6ff">GCP (CAPG)</text>

  <rect x="296" y="40" width="90" height="22" fill="#238636" fill-opacity="0.3" stroke="#3fb950" stroke-width="1" rx="11"/>
  <text x="341" y="55" text-anchor="middle" font-family="monospace" font-size="9" fill="#3fb950">vSphere (CAPV)</text>

  <rect x="396" y="40" width="100" height="22" fill="#238636" fill-opacity="0.3" stroke="#3fb950" stroke-width="1" rx="11"/>
  <text x="446" y="55" text-anchor="middle" font-family="monospace" font-size="9" fill="#3fb950">OpenStack (CAPO)</text>

  <rect x="506" y="40" width="112" height="22" fill="#238636" fill-opacity="0.3" stroke="#3fb950" stroke-width="1" rx="11"/>
  <text x="562" y="55" text-anchor="middle" font-family="monospace" font-size="9" fill="#3fb950">Remote / SSH ★</text>

  <!-- Workshop focus -->
  <rect x="20" y="78" width="598" height="70" fill="#161b22" stroke="#f0883e" stroke-width="1" rx="4"/>
  <text x="320" y="96" text-anchor="middle" font-family="monospace" font-size="10" fill="#f0883e">★ This Workshop: Hetzner via Remote/SSH</text>
  <text x="24" y="114" font-family="monospace" font-size="10" fill="#8b949e">Provider deploys k0s to any Linux machine via SSH — no cloud API needed</text>
  <text x="24" y="132" font-family="monospace" font-size="10" fill="#3fb950">$ kubectl get clustertemplate -n kcm-system | grep remote</text>
  <text x="24" y="144" font-family="monospace" font-size="10" fill="#58a6ff">  remote-cluster-1-0-19   VALID: true</text>
</svg>
