<svg xmlns="http://www.w3.org/2000/svg" viewBox="0 0 640 160" width="640" height="160">
  <rect width="640" height="160" fill="#0d1117" rx="10" stroke="#58a6ff" stroke-width="1.5" stroke-opacity="0.4"/>
  <rect x="1" y="1" width="638" height="28" rx="10" fill="#161b22"/>
  <rect x="1" y="20" width="638" height="9" fill="#161b22"/>
  <circle cx="18" cy="14" r="5" fill="#f85149" opacity="0.8"/>
  <circle cx="34" cy="14" r="5" fill="#f0883e" opacity="0.8"/>
  <circle cx="50" cy="14" r="5" fill="#3fb950" opacity="0.8"/>
  <text x="320" y="18" text-anchor="middle" font-family="monospace" font-size="11" fill="#8b949e">Architektur-Überblick</text>
  <rect x="20" y="38" width="280" height="110" fill="#1f6feb" fill-opacity="0.08" stroke="#58a6ff" stroke-width="1" rx="4"/>
  <text x="160" y="55" text-anchor="middle" font-family="monospace" font-size="9" fill="#58a6ff">Management-Cluster</text>
  <text x="160" y="70" text-anchor="middle" font-family="monospace" font-size="8" fill="#8b949e">KCM · KSM · KOF</text>
  <text x="160" y="85" text-anchor="middle" font-family="monospace" font-size="8" fill="#8b949e">CAPI · Flux · Sveltos</text>
  <text x="160" y="100" text-anchor="middle" font-family="monospace" font-size="8" fill="#8b949e">k0smotron · Velero</text>
  <line x1="300" y1="93" x2="340" y2="70" stroke="#30363d" stroke-width="1.5" stroke-dasharray="4,2"/>
  <line x1="300" y1="93" x2="340" y2="93" stroke="#30363d" stroke-width="1.5" stroke-dasharray="4,2"/>
  <line x1="300" y1="93" x2="340" y2="116" stroke="#30363d" stroke-width="1.5" stroke-dasharray="4,2"/>
  <rect x="340" y="55" width="90" height="28" fill="#161b22" stroke="#3fb950" stroke-width="1" rx="2"/>
  <text x="385" y="72" text-anchor="middle" font-family="monospace" font-size="7" fill="#3fb950">Child A</text>
  <rect x="340" y="79" width="90" height="28" fill="#161b22" stroke="#3fb950" stroke-width="1" rx="2"/>
  <text x="385" y="96" text-anchor="middle" font-family="monospace" font-size="7" fill="#3fb950">Child B</text>
  <rect x="340" y="103" width="90" height="28" fill="#161b22" stroke="#f0883e" stroke-width="1" rx="2"/>
  <text x="385" y="120" text-anchor="middle" font-family="monospace" font-size="7" fill="#f0883e">Child C</text>
  <text x="520" y="70" font-family="monospace" font-size="8" fill="#8b949e">Hetzner</text>
  <text x="520" y="86" font-family="monospace" font-size="8" fill="#8b949e">AWS</text>
  <text x="520" y="102" font-family="monospace" font-size="8" fill="#8b949e">Azure</text>
  <text x="520" y="118" font-family="monospace" font-size="8" fill="#8b949e">GCP</text>
</svg>
