<svg xmlns="http://www.w3.org/2000/svg" viewBox="0 0 640 160" width="640" height="160">
  <rect width="640" height="160" fill="#0d1117" rx="10" stroke="#58a6ff" stroke-width="1.5" stroke-opacity="0.4"/>
  <rect x="1" y="1" width="638" height="28" rx="10" fill="#161b22"/>
  <rect x="1" y="20" width="638" height="9" fill="#161b22"/>
  <circle cx="18" cy="14" r="5" fill="#f85149" opacity="0.8"/>
  <circle cx="34" cy="14" r="5" fill="#f0883e" opacity="0.8"/>
  <circle cx="50" cy="14" r="5" fill="#3fb950" opacity="0.8"/>
  <text x="320" y="18" text-anchor="middle" font-family="monospace" font-size="11" fill="#8b949e">Was ist k0rdent?</text>

  <rect x="20" y="38" width="180" height="110" fill="#1f6feb" fill-opacity="0.1" stroke="#58a6ff" stroke-width="1" rx="4"/>
  <text x="110" y="55" text-anchor="middle" font-family="monospace" font-size="9" fill="#58a6ff" font-weight="bold">KCM</text>
  <text x="110" y="70" text-anchor="middle" font-family="monospace" font-size="7" fill="#8b949e">Cluster Manager</text>
  <text x="110" y="84" text-anchor="middle" font-family="monospace" font-size="7" fill="#8b949e">Provisionierung</text>
  <text x="110" y="98" text-anchor="middle" font-family="monospace" font-size="7" fill="#8b949e">CAPI · k0smotron</text>

  <rect x="230" y="38" width="180" height="110" fill="#238636" fill-opacity="0.1" stroke="#3fb950" stroke-width="1" rx="4"/>
  <text x="320" y="55" text-anchor="middle" font-family="monospace" font-size="9" fill="#3fb950" font-weight="bold">KSM</text>
  <text x="320" y="70" text-anchor="middle" font-family="monospace" font-size="7" fill="#8b949e">State Manager</text>
  <text x="320" y="84" text-anchor="middle" font-family="monospace" font-size="7" fill="#8b949e">Service-Lifecycle</text>
  <text x="320" y="98" text-anchor="middle" font-family="monospace" font-size="7" fill="#8b949e">ProjectSveltos</text>

  <rect x="440" y="38" width="180" height="110" fill="#b56800" fill-opacity="0.1" stroke="#f0883e" stroke-width="1" rx="4"/>
  <text x="530" y="55" text-anchor="middle" font-family="monospace" font-size="9" fill="#f0883e" font-weight="bold">KOF</text>
  <text x="530" y="70" text-anchor="middle" font-family="monospace" font-size="7" fill="#8b949e">Observability</text>
  <text x="530" y="84" text-anchor="middle" font-family="monospace" font-size="7" fill="#8b949e">FinOps</text>
  <text x="530" y="98" text-anchor="middle" font-family="monospace" font-size="7" fill="#8b949e">OpenTelemetry</text>

  <text x="320" y="145" text-anchor="middle" font-family="monospace" font-size="8" fill="#58a6ff">Super-Control-Plane für Kubernetes-Cluster</text>
</svg>
