<svg xmlns="http://www.w3.org/2000/svg" viewBox="0 0 640 160" width="640" height="160">
  <rect width="640" height="160" fill="#0d1117" rx="10" stroke="#58a6ff" stroke-width="1.5" stroke-opacity="0.4"/>
  <rect x="1" y="1" width="638" height="28" rx="10" fill="#161b22"/>
  <rect x="1" y="20" width="638" height="9" fill="#161b22"/>
  <circle cx="18" cy="14" r="5" fill="#f85149" opacity="0.8"/>
  <circle cx="34" cy="14" r="5" fill="#f0883e" opacity="0.8"/>
  <circle cx="50" cy="14" r="5" fill="#3fb950" opacity="0.8"/>
  <text x="320" y="18" text-anchor="middle" font-family="monospace" font-size="11" fill="#8b949e">Unterstützte Provider</text>
  <rect x="20" y="38" width="78" height="38" fill="#161b22" stroke="#58a6ff" stroke-width="1" rx="3"/>
  <text x="59" y="61" text-anchor="middle" font-family="monospace" font-size="9" fill="#58a6ff">AWS</text>
  <rect x="108" y="38" width="78" height="38" fill="#161b22" stroke="#58a6ff" stroke-width="1" rx="3"/>
  <text x="147" y="61" text-anchor="middle" font-family="monospace" font-size="9" fill="#58a6ff">Azure</text>
  <rect x="196" y="38" width="78" height="38" fill="#161b22" stroke="#58a6ff" stroke-width="1" rx="3"/>
  <text x="235" y="61" text-anchor="middle" font-family="monospace" font-size="9" fill="#58a6ff">GCP</text>
  <rect x="284" y="38" width="78" height="38" fill="#161b22" stroke="#3fb950" stroke-width="1" rx="3"/>
  <text x="323" y="61" text-anchor="middle" font-family="monospace" font-size="9" fill="#3fb950">vSphere</text>
  <rect x="372" y="38" width="78" height="38" fill="#161b22" stroke="#3fb950" stroke-width="1" rx="3"/>
  <text x="411" y="61" text-anchor="middle" font-family="monospace" font-size="9" fill="#3fb950">OpenStack</text>
  <rect x="460" y="38" width="78" height="38" fill="#161b22" stroke="#3fb950" stroke-width="1" rx="3"/>
  <text x="499" y="61" text-anchor="middle" font-family="monospace" font-size="9" fill="#3fb950">KubeVirt</text>
  <rect x="196" y="90" width="250" height="38" fill="#238636" fill-opacity="0.15" stroke="#3fb950" stroke-width="1.5" rx="3"/>
  <text x="321" y="113" text-anchor="middle" font-family="monospace" font-size="9" fill="#3fb950">★ Remote/SSH — für Hetzner</text>
</svg>
